<?xml version="1.0" standalone="no"?>
<!DOCTYPE svg PUBLIC "-//W3C//DTD SVG 20010904//EN"
 "http://www.w3.org/TR/2001/REC-SVG-20010904/DTD/svg10.dtd">
<svg version="1.0" xmlns="http://www.w3.org/2000/svg"
 width="260.000000pt" height="260.000000pt" viewBox="0 0 260.000000 260.000000"
 preserveAspectRatio="xMidYMid meet">
<metadata>
Created by potrace 1.14, written by Peter Selinger 2001-2017
</metadata>
<g transform="translate(0.000000,260.000000) scale(0.100000,-0.100000)"
fill="#000000" stroke="none">
<path d="M1780 2522 c-69 -20 -147 -94 -410 -386 -155 -173 -205 -220 -310
-300 l-125 -94 -213 6 -213 7 -48 -50 c-45 -47 -164 -184 -223 -258 -15 -19
-53 -91 -84 -161 l-57 -126 52 -150 c46 -134 65 -173 173 -351 l121 -201 240
-218 c188 -171 249 -221 281 -230 60 -17 584 -10 595 8 6 10 10 10 21 -3 19
-22 70 -20 70 4 0 10 20 37 44 59 24 22 46 46 49 54 4 9 6 10 6 1 1 -18 36
-16 51 2 7 8 22 15 34 15 20 -1 20 -1 3 -11 -18 -10 -18 -12 -1 -30 16 -18 16
-19 -3 -19 -21 0 -33 -18 -33 -50 0 -20 50 -37 71 -24 8 4 9 3 5 -4 -5 -8 5
-12 31 -11 35 0 90 16 68 19 -5 1 -22 3 -36 5 -29 4 -99 31 -99 39 0 3 14 3
30 0 19 -4 30 -2 30 5 0 6 -10 11 -22 11 -21 0 -21 1 -3 14 11 8 16 21 13 32
-4 17 1 19 66 19 77 0 94 -9 69 -37 -9 -10 -11 -18 -5 -18 6 0 14 5 17 10 3 6
16 10 28 10 18 0 15 -3 -13 -18 -38 -18 -55 -62 -25 -62 8 0 18 -6 21 -14 3
-9 24 -14 64 -15 53 -1 59 1 53 16 -6 17 -5 17 14 0 11 -9 36 -17 57 -17 l37
0 -20 29 c-20 28 -20 29 -2 24 11 -3 29 -16 42 -29 12 -13 29 -24 38 -24 9 0
-4 19 -34 50 -26 27 -51 47 -54 45 -4 -2 -14 3 -24 10 -16 11 -15 13 12 17 16
2 29 1 28 -2 -2 -7 74 -93 92 -104 14 -9 1 26 -13 36 -7 5 -7 8 2 8 6 0 12 5
12 10 0 6 -6 10 -13 8 -7 -2 -28 14 -46 34 -28 32 -36 36 -52 27 -11 -5 -34
-8 -52 -6 -20 2 -36 -2 -43 -11 -9 -12 -13 -12 -27 2 -9 10 -21 24 -25 33 -7
12 -14 13 -27 6 -22 -13 -55 -5 -55 12 0 20 -33 28 -45 11 -8 -10 -16 -12 -26
-5 -8 5 -10 9 -4 9 5 0 4 5 -3 12 -22 22 -12 26 65 23 69 -2 77 -4 85 -25 11
-29 49 -82 55 -77 2 3 -3 19 -12 36 -16 32 -11 42 9 16 8 -12 10 -4 8 33 -3
38 0 51 12 55 12 5 16 0 16 -21 0 -51 13 -103 24 -99 6 2 10 11 10 20 -1 8 4
13 11 11 6 -3 18 3 26 13 12 16 12 17 -2 6 -13 -11 -19 -9 -34 7 -24 27 -11
38 23 18 15 -9 42 -19 61 -23 26 -5 30 -10 20 -17 -11 -8 -10 -9 4 -4 30 9 47
-4 41 -30 -4 -13 -1 -31 6 -39 6 -8 8 -20 4 -26 -4 -7 -3 -9 4 -5 6 3 13 2 17
-4 3 -5 11 -10 16 -10 5 0 -2 17 -16 37 -34 51 -31 66 5 23 22 -26 30 -30 30
-17 0 9 -5 17 -11 17 -6 0 -9 6 -6 13 2 6 -18 37 -45 66 -26 30 -48 60 -48 67
0 6 -17 19 -37 27 -34 13 -39 13 -49 -2 -16 -21 -24 -12 -29 35 -2 22 -5 40
-6 42 -1 1 -2 5 -4 10 -10 36 -27 62 -42 62 -17 -1 -17 -2 1 -15 12 -9 16 -20
12 -32 -7 -17 -8 -17 -21 2 -8 11 -19 26 -25 33 -8 9 -7 12 1 12 7 0 9 3 6 6
-4 4 -27 -10 -52 -31 -37 -30 -52 -36 -75 -32 -18 4 -32 1 -40 -8 -15 -18 -30
-10 -30 14 0 10 -7 24 -15 31 -22 18 -19 25 11 27 27 1 47 20 38 35 -3 4 -1 8
5 8 5 0 11 -5 13 -11 2 -6 13 -3 28 9 l24 20 51 -29 c29 -16 63 -29 78 -29 17
0 28 -7 32 -20 7 -21 25 -28 25 -10 0 6 -5 10 -12 10 -6 0 -8 3 -4 7 4 4 37
-24 73 -62 45 -49 54 -56 29 -23 -42 55 -46 66 -10 35 14 -12 29 -22 32 -22
27 -2 53 -22 86 -66 33 -44 41 -60 45 -89 1 -3 20 -28 42 -55 23 -28 53 -74
66 -104 13 -29 26 -51 29 -48 15 15 -29 100 -110 218 -84 121 -96 134 -153
165 -35 19 -63 32 -63 29 0 -2 -12 7 -26 20 -15 14 -38 25 -51 25 -13 0 -22 4
-19 9 4 5 -2 7 -13 4 -10 -3 -22 0 -25 6 -4 6 -19 11 -34 11 l-27 1 25 15 c14
8 17 13 8 10 -10 -3 -20 -1 -23 4 -4 6 -45 29 -93 52 -105 52 -113 55 -87 34
11 -8 14 -16 8 -16 -7 0 -18 9 -25 19 -6 10 -18 17 -25 14 -7 -3 -13 0 -13 7
0 6 -4 9 -8 6 -5 -3 -26 13 -48 35 -32 33 -36 41 -24 49 11 7 16 5 18 -6 3
-14 97 -63 150 -79 12 -3 22 -11 22 -16 0 -6 5 -7 10 -4 6 3 10 1 10 -4 0 -6
3 -10 8 -9 4 2 87 -41 184 -95 l177 -98 127 -140 c70 -77 129 -137 132 -135 2
3 -53 67 -122 144 l-127 139 -207 115 c-114 62 -238 127 -277 143 -86 35 -81
31 -62 52 15 17 10 21 -68 62 -46 24 -101 62 -123 85 -39 41 -39 41 -33 103 5
44 13 69 29 86 23 25 30 43 10 31 -7 -5 -8 -3 -4 5 5 7 11 10 14 7 7 -8 42 24
42 37 0 6 -10 2 -22 -9 l-23 -19 19 23 c11 12 22 20 25 17 7 -7 101 87 96 96
-3 4 3 13 12 20 12 10 14 10 9 2 -12 -21 4 -15 38 14 17 14 30 30 28 35 -1 5
2 7 7 3 14 -8 73 23 66 35 -3 5 0 12 6 16 8 4 9 3 5 -4 -10 -16 -1 -15 35 3
17 9 27 21 23 27 -4 6 -3 8 4 4 14 -9 103 35 95 47 -3 6 -1 7 6 3 7 -4 47 4
91 20 68 23 87 36 144 93 64 64 67 71 87 152 23 96 21 180 -7 210 -9 10 -21
19 -25 19 -5 0 -46 -26 -91 -58 -46 -33 -165 -105 -265 -161 -101 -57 -180
-107 -177 -112 3 -5 -3 -6 -12 -2 -13 5 -15 3 -9 -7 5 -9 4 -11 -3 -6 -15 9
-54 -12 -47 -24 4 -6 -1 -7 -11 -3 -13 5 -15 3 -9 -7 5 -9 4 -11 -3 -6 -16 10
-144 -63 -135 -76 3 -7 1 -8 -5 -4 -16 9 -171 -78 -234 -131 -52 -45 -73 -56
-45 -25 19 21 22 37 5 26 -7 -5 -8 -3 -4 5 5 7 11 10 14 7 7 -7 32 13 32 26 0
5 -5 6 -12 2 -7 -5 -8 -3 -4 5 5 7 11 10 14 7 7 -7 32 13 32 26 0 5 -5 6 -12
2 -7 -4 -8 -3 -4 5 4 6 11 9 16 6 4 -3 161 151 348 341 l341 346 66 -11 c56
-8 74 -17 130 -61 35 -28 66 -47 68 -43 2 5 8 34 11 65 7 55 6 60 -48 166 -36
69 -67 116 -87 131 -17 12 -33 21 -35 18 -3 -3 9 -15 26 -27 16 -12 38 -36 47
-53 12 -25 5 -20 -33 22 -27 30 -49 58 -49 62 0 14 -55 50 -66 43 -7 -4 -9 -3
-5 4 4 6 -12 23 -36 40 -33 23 -62 32 -127 41 -103 14 -121 13 -191 -7z m77
-7 c-37 -8 -93 -28 -125 -45 -54 -29 -56 -29 -32 -6 32 33 122 65 180 64 42 0
41 -1 -23 -13z m167 -5 c21 -4 46 -16 55 -25 15 -15 13 -15 -23 0 -22 9 -58
20 -80 25 -26 5 -32 8 -16 9 14 0 43 -4 64 -9z m-289 -70 c-3 -5 -12 -10 -18
-10 -7 0 -6 4 3 10 19 12 23 12 15 0z m115 -4 c0 -20 -89 -96 -112 -96 -11 0
-23 -11 -28 -26 -8 -21 -15 -25 -33 -20 -12 3 -27 6 -34 6 -7 0 -17 9 -23 21
-11 20 -11 20 13 5 28 -19 37 -13 37 25 0 21 9 33 37 51 71 45 143 62 143 34z
m-308 -156 c-25 -38 -52 -70 -59 -70 -29 0 -2 -18 44 -29 106 -26 123 -32 118
-41 -7 -12 -69 -1 -128 21 -61 24 -69 24 -65 -3 3 -20 13 -25 103 -40 164 -29
203 -32 221 -17 14 11 15 10 12 -11 -3 -22 -7 -24 -55 -23 -29 1 -57 4 -62 8
-6 3 -58 6 -117 6 -71 1 -103 4 -93 10 10 7 2 9 -26 7 -32 -2 -40 -7 -40 -23
0 -19 8 -20 139 -23 118 -2 141 -5 152 -20 7 -9 13 -21 13 -27 0 -5 -6 -2 -13
8 -13 17 -22 18 -132 7 -65 -7 -142 -9 -170 -5 -30 3 -55 2 -58 -3 -8 -13 94
-25 148 -17 24 4 63 4 86 0 40 -7 41 -7 23 -27 -17 -19 -17 -19 12 -12 16 4
36 13 43 21 7 7 19 13 25 13 7 0 4 -5 -5 -11 -21 -12 -13 -39 12 -39 16 0 18
-7 16 -47 -5 -91 -12 -101 -196 -288 -257 -262 -330 -370 -330 -488 0 -36 -4
-56 -10 -52 -5 3 -10 34 -11 68 0 49 -2 58 -10 41 -7 -14 -6 -43 4 -97 11 -60
12 -79 2 -87 -6 -5 -15 -7 -18 -3 -11 10 -8 -30 3 -47 5 -8 12 -11 17 -7 4 5
1 12 -7 17 -29 18 -2 20 29 3 55 -32 37 -47 -53 -46 -17 0 -17 -1 -2 -12 9 -7
16 -14 16 -17 0 -11 -55 6 -63 19 -5 7 -12 11 -17 8 -4 -3 -11 2 -14 11 -4 12
-2 15 9 10 12 -4 13 -2 2 17 -6 12 -16 25 -22 29 -5 4 -10 12 -10 18 0 10 -15
15 -15 5 -1 -15 13 -55 19 -55 3 0 7 -11 7 -24 2 -34 -26 -27 -53 13 -21 31
-70 149 -77 187 -14 68 -16 70 -67 80 -47 10 -49 10 -43 -10 10 -33 26 -48 46
-43 10 3 18 2 19 -1 0 -4 3 -20 5 -36 l5 -28 -28 21 c-17 14 -35 20 -49 17
-14 -4 -28 1 -39 14 -10 11 -28 20 -40 20 -36 0 -50 24 -35 60 7 16 18 30 25
30 6 0 12 7 12 15 0 8 -5 15 -11 15 -6 0 -5 4 3 9 8 5 16 18 17 28 4 24 -22
63 -42 63 -12 0 -13 4 -3 23 8 15 2 12 -18 -10 -16 -18 -32 -30 -36 -27 -11
11 5 35 34 50 27 13 33 12 30 -9 -1 -4 15 -15 35 -23 27 -11 34 -18 25 -27 -6
-6 -11 -16 -11 -21 0 -6 5 -4 10 4 7 11 9 4 7 -25 -2 -35 1 -40 21 -43 12 -2
20 -7 17 -12 -3 -4 2 -10 10 -13 10 -4 12 -1 9 11 -5 14 -4 15 4 2 8 -10 8
-18 0 -27 -8 -10 -3 -13 23 -15 32 -1 41 -1 80 4 10 1 14 9 11 20 -2 10 5 36
17 59 12 23 20 44 17 46 -3 3 -18 2 -33 -3 -15 -4 -38 -7 -51 -6 -21 1 -22 0
-7 -21 8 -12 15 -26 15 -32 0 -5 -8 4 -19 20 -12 20 -15 34 -9 42 7 9 5 15 -8
20 -27 9 -34 23 -34 63 l1 35 27 -30 c15 -16 39 -35 52 -42 19 -9 21 -12 7
-12 -14 -1 -15 -4 -5 -14 7 -8 20 -12 30 -10 32 9 26 29 -18 52 -24 13 -46 33
-50 44 -5 16 -8 17 -15 6 -6 -9 -7 3 -3 31 4 28 16 55 32 72 14 15 22 31 17
35 -4 5 -10 2 -12 -4 -3 -7 -9 -13 -15 -13 -21 0 -39 -29 -32 -54 4 -18 0 -30
-15 -43 -23 -19 -27 -56 -11 -98 8 -20 7 -25 -3 -20 -6 4 -5 0 5 -7 18 -15 78
-114 78 -128 0 -24 -19 -4 -63 69 -48 81 -55 97 -35 85 7 -4 8 -3 4 5 -4 6
-11 9 -16 6 -4 -3 -13 2 -20 9 -9 11 -9 20 0 37 7 12 8 19 3 16 -5 -3 -9 9 -9
26 0 18 -10 53 -22 80 -11 26 -22 51 -23 55 -1 4 -9 12 -18 19 -13 10 -13 12
-1 13 11 0 11 3 2 12 -7 7 -12 19 -12 27 1 13 3 13 14 -2 9 -12 16 -14 21 -8
4 7 49 11 115 11 106 0 183 16 201 43 3 5 8 8 10 7 13 -5 58 22 72 44 10 14
24 26 32 26 8 0 14 4 13 8 -3 8 79 82 158 143 19 14 31 29 28 32 -7 7 -3 9
-99 -71 -105 -88 -236 -183 -275 -200 -27 -11 -75 -14 -202 -13 -93 1 -168 -2
-168 -7 0 -4 -22 -16 -48 -26 -27 -11 -49 -25 -49 -33 0 -11 3 -11 16 0 16 13
66 37 78 37 3 0 0 -7 -7 -15 -7 -9 -8 -15 -2 -15 5 0 12 6 15 14 8 21 45 26
59 8 11 -13 11 -14 -2 -7 -8 5 -1 -9 15 -30 33 -43 47 -71 64 -124 13 -41 8
-51 -11 -22 -7 12 -20 21 -28 21 -13 0 -13 1 0 10 11 7 4 10 -25 10 l-40 0 45
-29 c48 -30 76 -58 67 -67 -3 -3 -10 4 -17 15 -6 12 -15 21 -21 21 -6 0 -8 -4
-4 -9 13 -22 -20 -23 -37 -1 -16 20 -21 21 -48 10 -31 -13 -40 -30 -17 -30 20
0 18 -36 -4 -56 -22 -19 -25 -44 -6 -45 9 0 9 -2 -1 -6 -6 -2 -10 -8 -7 -13 3
-5 -12 -7 -32 -4 -24 3 -33 1 -24 -5 9 -6 10 -11 2 -15 -6 -4 -18 -24 -28 -44
-12 -24 -19 -31 -21 -20 -2 9 6 33 17 54 11 20 18 41 16 45 -3 4 8 5 25 3 18
-3 30 -1 30 6 0 6 -4 8 -10 5 -6 -3 -10 -2 -10 4 0 5 4 12 9 15 11 7 2 46 -9
46 -5 0 -10 -10 -12 -22 -2 -15 -11 -24 -25 -26 -13 -2 -23 -10 -23 -18 0 -8
-4 -14 -9 -14 -6 0 -12 -15 -14 -32 l-4 -33 -1 35 c-1 20 3 41 9 47 8 8 -1 12
-31 15 -32 3 -38 1 -26 -7 13 -10 13 -14 -2 -30 -16 -18 -16 -18 3 -4 19 13
19 13 6 -4 -27 -34 -34 4 -32 161 1 51 2 53 46 81 24 15 42 31 40 35 -3 3 -2
4 1 1 9 -6 84 34 84 45 0 6 -13 4 -29 -4 -16 -9 -31 -12 -35 -9 -3 4 -6 1 -6
-6 0 -7 -5 -9 -10 -6 -8 5 -7 12 2 23 6 10 -10 -3 -36 -28 -42 -39 -47 -42
-41 -20 5 14 35 56 68 95 l59 70 216 -6 215 -7 125 94 c105 79 154 126 318
309 107 118 196 215 198 215 2 0 -17 -31 -42 -70z m95 4 c-3 -3 -12 -4 -19 -1
-8 3 -5 6 6 6 11 1 17 -2 13 -5z m742 -164 c0 -18 -4 -12 -15 20 -17 56 -17
62 1 30 8 -14 14 -36 14 -50z m-316 43 c8 -8 -11 -33 -25 -33 -7 0 -6 5 1 13
6 8 8 17 4 20 -3 4 -2 7 4 7 5 0 13 -3 16 -7z m-275 -23 c4 -12 3 -13 -10 -2
-11 9 -23 10 -42 2 -34 -13 -53 -13 -40 -1 22 22 85 23 92 1z m227 -15 c-3
-30 -32 -65 -54 -65 -10 0 -4 12 20 37 32 36 32 37 2 9 -17 -15 -35 -26 -40
-23 -4 2 -19 1 -32 -4 -17 -7 -22 -15 -18 -29 5 -20 -25 -60 -45 -60 -5 0 -6
-4 -3 -10 3 -5 1 -10 -4 -10 -14 0 -14 -1 9 45 30 58 69 96 94 89 15 -3 28 3
44 20 27 32 31 32 27 1z m184 9 c9 -8 -45 -2 -64 6 -14 7 -8 8 20 3 22 -3 42
-7 44 -9z m-274 -124 c-20 -22 -31 -20 -22 5 4 8 14 15 23 15 16 0 16 -2 -1
-20z m-273 3 c-12 -2 -20 -9 -17 -14 4 -5 2 -9 -4 -9 -13 0 -22 15 -14 24 3 3
18 5 32 5 24 -2 24 -2 3 -6z m318 -6 c0 -1 -42 -43 -92 -92 l-93 -90 90 93
c83 85 95 97 95 89z m-129 -80 l-24 -22 19 27 c10 14 21 24 23 22 3 -3 -6 -15
-18 -27z m585 -55 c4 -27 0 -76 -12 -133 -15 -73 -23 -94 -47 -116 l-30 -28
27 41 c31 48 58 168 50 221 -8 49 -22 75 -36 67 -7 -4 -8 -3 -4 4 14 23 45
-11 52 -56z m-115 -1 c-38 -25 -109 -64 -82 -44 14 10 41 30 60 44 20 15 38
24 41 22 3 -3 -6 -13 -19 -22z m-131 -76 c0 -2 -13 -11 -30 -20 -38 -19 -40
-11 -2 9 31 17 32 18 32 11z m-90 -50 c0 -2 -10 -9 -22 -15 -22 -11 -22 -10
-4 4 21 17 26 19 26 11z m-50 -30 c0 -2 -13 -11 -30 -20 -38 -19 -40 -11 -2 9
31 17 32 18 32 11z m-70 -40 c0 -2 -13 -11 -30 -20 -38 -19 -40 -11 -2 9 31
17 32 18 32 11z m-70 -110 c7 -8 24 -14 39 -14 23 2 24 2 3 6 -28 6 -19 23 13
23 18 0 23 -5 22 -20 -1 -13 -8 -20 -21 -20 -26 0 -10 -15 24 -23 24 -6 53 3
51 17 -5 37 -2 39 60 32 33 -4 73 -12 87 -18 l27 -11 -38 -8 c-30 -7 -42 -5
-53 6 -21 20 -45 19 -50 -3 -7 -25 -52 -44 -75 -31 -13 6 -25 6 -39 -3 -23
-14 -23 -17 -11 -38 7 -10 1 -20 -24 -37 -19 -13 -37 -23 -40 -23 -4 0 -13 -7
-21 -15 -9 -8 -28 -15 -44 -15 -22 0 -29 -5 -32 -22 -2 -12 -14 -28 -28 -35
-14 -7 -21 -13 -16 -13 5 0 -8 -11 -28 -25 -42 -28 -58 -32 -50 -11 3 8 15 16
27 18 22 3 39 48 18 48 -6 0 -11 10 -11 21 0 18 2 19 15 9 21 -18 61 16 44 37
-6 7 -18 13 -25 13 -8 0 -14 6 -14 14 0 8 -13 19 -30 25 -16 5 -30 6 -30 1 0
-5 -10 -12 -21 -15 -12 -4 -17 -10 -12 -14 15 -10 16 -74 1 -68 -8 3 -14 -5
-14 -19 -1 -13 2 -21 7 -18 5 3 7 -1 4 -8 -2 -7 -13 -44 -25 -83 -12 -41 -33
-84 -51 -105 -17 -19 -29 -29 -27 -21 2 7 -3 16 -9 18 -7 3 -13 -3 -13 -12 0
-9 -4 -13 -10 -10 -5 3 -10 2 -10 -4 0 -5 5 -13 11 -16 17 -11 4 -30 -22 -30
-19 0 -25 -6 -27 -26 -4 -35 -91 -124 -105 -110 -13 13 -56 15 -58 4 -1 -5 -3
-18 -4 -31 -3 -31 -5 -32 -47 -15 -42 17 -48 28 -18 36 11 3 18 1 14 -4 -3 -5
2 -6 10 -3 9 3 16 12 16 20 0 8 7 14 16 14 12 0 15 6 10 24 -4 16 -1 26 9 30
22 8 19 20 -16 57 -25 27 -30 30 -25 12 4 -12 2 -24 -4 -28 -13 -8 -13 -55 0
-55 6 0 10 -5 10 -11 0 -5 -4 -8 -9 -4 -5 3 -12 1 -16 -5 -7 -11 -59 12 -71
31 -4 8 -3 9 4 5 8 -5 12 0 12 13 0 32 18 25 25 -9 4 -16 11 -32 16 -35 9 -6
3 40 -11 86 -8 26 -4 40 34 119 32 68 107 180 90 135 -7 -17 -1 -15 32 9 21
16 54 42 72 58 32 27 92 63 92 54 0 -2 -28 -24 -63 -49 -119 -85 -221 -210
-241 -297 -3 -14 8 4 24 39 45 94 173 217 312 299 59 34 111 62 115 61 24 -4
53 2 48 10 -3 6 21 18 52 27 32 10 63 24 69 31 6 7 16 13 22 13 5 0 12 7 16
15 3 8 9 15 14 15 5 0 15 -7 22 -15z m384 -29 c-5 -12 -45 -36 -61 -36 -5 0
55 45 64 49 1 1 0 -5 -3 -13z m-704 -81 c0 -2 -13 -11 -30 -20 -38 -19 -40
-11 -2 9 31 17 32 18 32 11z m-920 -115 c0 -5 -7 -13 -16 -18 -15 -8 -14 -11
5 -24 14 -10 19 -21 15 -32 -3 -9 -10 -14 -14 -11 -16 10 -40 -7 -40 -29 0
-15 -9 -24 -34 -32 -33 -10 -35 -9 -41 15 -6 25 -7 25 -21 7 -8 -11 -14 -35
-14 -53 0 -37 -18 -44 -38 -13 -11 18 -7 25 28 61 22 23 40 46 40 53 0 6 4 6
9 -2 14 -23 44 -10 47 22 5 52 7 54 67 65 4 0 7 -3 7 -9z m-243 -86 c-9 -45
-8 -54 6 -69 9 -9 17 -22 17 -28 0 -6 -10 -2 -22 10 -25 26 -31 101 -9 127 19
23 20 18 8 -40z m1323 -17 c0 -2 -17 -19 -37 -38 l-38 -34 34 38 c33 34 41 42
41 34z m-1180 -116 c-6 -12 -15 -21 -20 -21 -19 0 -10 -39 11 -45 11 -4 18 -9
16 -11 -2 -3 -16 1 -31 7 -19 9 -26 20 -26 42 0 20 4 28 13 24 7 -3 19 4 26
15 16 26 26 16 11 -11z m-115 8 c11 -17 -1 -21 -15 -4 -8 9 -8 15 -2 15 6 0
14 -5 17 -11z m287 -37 c3 -10 26 -28 50 -40 50 -23 71 -52 38 -52 -28 0 -26
-36 3 -51 12 -7 24 -12 27 -12 3 0 13 -3 23 -6 17 -6 17 -8 -2 -25 -12 -11
-21 -29 -21 -41 0 -23 24 -40 41 -29 5 3 23 -5 40 -17 22 -15 34 -18 41 -11 8
8 21 3 45 -19 19 -16 39 -26 45 -23 7 4 8 2 4 -5 -4 -7 -4 -20 0 -29 4 -9 6
-29 5 -43 -1 -16 4 -29 13 -32 23 -9 46 3 46 23 0 10 8 21 18 23 10 3 7 5 -10
6 -31 1 -64 51 -53 78 7 20 20 7 20 -20 0 -18 7 -23 38 -25 27 -2 37 0 35 10
-2 7 3 12 10 10 6 -1 12 2 12 8 0 5 5 10 12 10 9 0 9 -3 0 -12 -7 -7 -12 -23
-12 -36 0 -14 -9 -33 -21 -43 -21 -18 -24 -65 -4 -63 6 1 27 -7 47 -17 49 -25
70 -24 96 4 16 17 19 26 11 34 -6 6 -10 16 -7 23 2 7 14 1 31 -14 16 -15 33
-24 38 -21 5 4 9 -3 9 -14 0 -11 6 -26 14 -34 9 -8 11 -18 6 -23 -13 -14 43
-70 76 -77 16 -3 38 -9 49 -13 17 -7 18 -6 7 8 -10 13 -10 17 2 21 10 4 17 -2
21 -16 4 -12 23 -37 44 -55 20 -18 29 -30 21 -26 -8 4 -25 16 -36 26 -14 13
-24 16 -29 9 -9 -16 -25 -13 -25 3 0 8 -10 18 -22 22 -33 11 -58 12 -52 2 3
-4 0 -8 -6 -8 -7 0 -14 9 -17 20 -3 11 -9 20 -14 20 -5 0 -9 6 -9 13 0 21 -37
50 -52 41 -11 -6 -11 -5 0 8 17 21 6 45 -23 50 -18 4 -24 0 -28 -19 -2 -12 -1
-23 2 -23 3 -1 17 -10 30 -21 21 -17 24 -28 22 -67 -2 -50 -8 -63 -19 -46 -7
11 -71 35 -102 39 -24 2 -50 16 -50 26 0 5 16 3 35 -5 26 -11 35 -12 35 -3 0
9 3 8 9 -1 4 -7 19 -14 32 -16 14 -1 30 -6 37 -10 8 -5 12 2 12 21 0 31 -28
55 -69 59 -13 2 -31 10 -41 19 -23 21 -48 10 -52 -23 l-4 -27 -8 30 c-15 59
-14 58 -56 52 -29 -4 -40 -1 -40 8 0 20 -26 36 -59 37 -19 1 -31 6 -31 15 0 8
-11 13 -29 13 -16 0 -36 7 -45 15 -8 8 -21 15 -29 15 -8 0 -21 7 -28 16 -7 9
-24 20 -37 25 -29 11 -27 14 16 22 18 4 32 2 32 -3 0 -6 9 -19 21 -31 21 -21
21 -21 41 -2 18 19 18 20 1 40 -22 25 -104 56 -126 47 -9 -3 -17 -13 -19 -21
-2 -11 -7 -7 -17 13 -7 16 -17 37 -22 47 -8 14 -4 17 23 18 18 1 36 1 41 0 11
-2 9 7 -10 35 -13 20 -22 25 -44 20 -23 -4 -28 -1 -34 22 -5 20 -2 31 15 44
24 19 19 38 -9 38 -11 0 -21 9 -24 23 -2 12 -8 30 -12 40 -4 9 -3 17 3 17 5 0
12 -8 14 -18z m106 -37 c-3 -3 -13 7 -23 22 l-17 28 23 -22 c12 -12 20 -25 17
-28z m-338 15 c0 -5 -7 -7 -15 -4 -8 4 -15 8 -15 10 0 2 7 4 15 4 8 0 15 -4
15 -10z m15 -48 c-3 -3 -11 0 -18 7 -9 10 -8 11 6 5 10 -3 15 -9 12 -12z
m1018 1 c-20 -19 -33 -44 -40 -77 -2 -11 -8 -25 -14 -32 -6 -7 -8 -17 -5 -22
8 -14 -64 -26 -77 -13 -16 16 -25 14 -43 -14 -14 -21 -14 -28 -3 -42 13 -16
12 -16 -14 0 -24 16 -28 16 -33 2 -6 -14 -8 -13 -20 2 -16 22 -18 33 -3 33 5
0 7 -6 3 -12 -9 -15 28 12 38 28 4 6 32 19 62 29 31 11 56 25 56 32 0 18 81
102 99 103 10 0 8 -5 -6 -17z m-641 -10 c32 -29 18 -61 -22 -48 -26 8 -25 21
2 29 22 5 22 6 3 20 -11 9 -16 16 -11 16 5 0 18 -7 28 -17z m675 -58 l-6 -55
52 -44 c29 -24 79 -57 112 -74 51 -26 56 -31 33 -32 -16 0 -28 4 -28 9 0 5
-21 19 -46 30 -25 12 -57 33 -70 46 l-24 24 -1 -22 c0 -13 -3 -16 -6 -8 -3 7
-14 22 -24 32 -22 22 -24 55 -7 110 16 55 22 48 15 -16z m-974 -10 c23 -32 17
-32 -13 0 -13 14 -19 25 -14 25 5 0 17 -12 27 -25z m934 -7 c-3 -8 -6 -5 -6 6
-1 11 2 17 5 13 3 -3 4 -12 1 -19z m-573 -40 c14 -20 14 -23 -6 -37 -17 -11
-23 -12 -26 -2 -2 7 -14 22 -26 33 -17 17 -17 20 -3 15 9 -4 17 -2 17 3 0 18
29 10 44 -12z m164 -39 c17 1 32 -3 32 -9 0 -17 -103 -12 -129 6 -34 24 -6 37
33 17 17 -9 46 -16 64 -14z m39 15 c-3 -3 -12 -4 -19 -1 -8 3 -5 6 6 6 11 1
17 -2 13 -5z m333 -14 c0 -5 -4 -10 -10 -10 -5 0 -10 5 -10 10 0 6 5 10 10 10
6 0 10 -4 10 -10z m40 -40 c0 -21 4 -41 9 -44 5 -3 11 -15 14 -27 5 -20 3 -19
-23 6 -15 15 -27 34 -25 43 2 10 4 30 4 45 1 43 21 21 21 -23z m-510 5 c11
-13 10 -14 -4 -9 -9 3 -16 10 -16 15 0 13 6 11 20 -6z m420 2 c0 -8 18 -28 41
-46 22 -18 38 -35 35 -38 -3 -3 -13 0 -22 8 -15 12 -16 10 -9 -29 10 -62 -2
-51 -15 13 -12 56 -27 68 -50 40 -7 -8 -19 -15 -27 -15 -12 0 -12 -3 1 -16 21
-20 20 -40 -1 -48 -10 -3 -23 -9 -30 -12 -7 -3 -13 4 -15 18 -4 32 -52 38 -68
8 -6 -12 -9 -28 -6 -35 2 -7 -2 -16 -10 -19 -8 -3 -17 1 -20 9 -4 8 -12 15
-20 15 -21 0 -17 17 6 23 23 6 39 39 22 45 -7 2 -19 17 -27 33 -9 16 -23 29
-33 29 -14 0 -15 2 -2 10 17 11 48 -13 61 -48 7 -19 12 -21 29 -12 11 6 18 15
15 19 -2 5 2 15 11 22 8 7 14 8 13 3 -6 -34 2 -54 24 -54 24 0 53 35 37 45
-16 10 22 41 53 44 4 1 7 -5 7 -12z m117 -9 c-3 -8 -6 -5 -6 6 -1 11 2 17 5
13 3 -3 4 -12 1 -19z m91 -89 c15 -6 21 -5 17 1 -3 6 -2 10 4 10 6 0 17 -13
25 -29 15 -28 15 -29 -16 -35 -31 -6 -57 12 -58 40 0 6 -6 17 -14 24 -8 6 -12
18 -9 26 4 12 8 10 17 -7 6 -12 21 -26 34 -30z m52 31 c8 -5 11 -10 5 -10 -5
0 -17 5 -25 10 -8 5 -10 10 -5 10 6 0 17 -5 25 -10z m-124 -62 c-4 6 -2 12 3
12 13 0 13 -3 5 -24 -3 -9 -10 -13 -15 -10 -5 3 -9 -1 -9 -8 0 -10 -2 -10 -9
1 -5 8 -7 20 -4 28 4 11 8 11 21 1 12 -10 14 -10 8 0z m-109 -35 c-3 -10 -5
-4 -5 12 0 17 2 24 5 18 2 -7 2 -21 0 -30z m-30 -30 c-3 -10 -5 -2 -5 17 0 19
2 27 5 18 2 -10 2 -26 0 -35z m93 22 c0 -14 5 -25 10 -25 17 0 11 -14 -11 -28
-20 -13 -21 -12 -14 17 5 23 3 33 -9 37 -18 7 -12 24 10 24 8 0 14 -10 14 -25z
m50 -16 c0 -7 15 -9 40 -6 22 2 43 0 46 -5 4 -6 19 -7 35 -4 25 5 32 0 60 -39
35 -48 66 -61 56 -24 -4 17 -3 19 6 10 6 -6 21 -11 33 -11 13 0 26 -5 29 -10
4 -6 12 -10 18 -9 23 3 77 -14 88 -27 17 -21 3 -29 -26 -16 -33 15 -56 16 -35
1 12 -8 9 -10 -12 -6 -15 2 -26 0 -25 -5 1 -6 -7 -15 -18 -21 -29 -17 -35 -29
-28 -52 9 -30 46 -74 63 -74 8 -1 21 -10 27 -20 11 -17 9 -20 -10 -23 -14 -2
-21 -9 -21 -21 3 -27 -6 -20 -22 18 -8 19 -20 35 -27 35 -8 0 -24 11 -37 25
-28 30 -51 32 -74 6 -22 -24 -12 -43 18 -39 38 5 131 -91 105 -107 -6 -4 -8
-12 -6 -19 5 -13 -61 -38 -69 -25 -2 4 7 16 21 25 15 10 25 26 25 41 0 23 -2
24 -40 18 -36 -6 -40 -5 -40 14 0 14 -6 21 -20 21 -13 0 -20 7 -20 20 0 10 -8
24 -17 30 -13 8 -14 13 -5 16 17 8 15 31 -3 38 -24 9 -18 36 9 36 33 0 53 25
36 45 -16 20 -35 19 -56 -2 -17 -17 -17 -17 -11 6 7 28 -12 51 -42 51 -12 0
-21 6 -21 15 0 7 -8 19 -17 24 -10 6 -12 11 -5 11 20 0 14 30 -10 51 -13 10
-17 18 -10 19 6 0 12 -5 12 -11z m-100 -50 c0 -5 -5 -9 -11 -9 -5 0 -7 5 -4
10 3 6 1 10 -4 10 -6 0 -11 5 -11 11 0 8 5 8 15 -1 8 -7 15 -16 15 -21z m67
-14 c0 -8 -4 -15 -9 -15 -4 0 -8 7 -8 15 0 8 4 15 8 15 5 0 9 -7 9 -15z m-132
-90 c0 -19 -6 -37 -12 -40 -16 -5 -16 -4 -3 30 7 18 7 33 -1 48 -10 19 -9 20
2 9 8 -7 14 -29 14 -47z m76 29 c12 -14 11 -16 -5 -13 -11 2 -21 10 -24 17 -5
17 13 15 29 -4z m-4 -101 c18 -12 23 -12 38 3 17 17 18 17 31 -1 8 -10 14 -23
14 -28 0 -5 7 -6 16 -3 10 4 33 -13 69 -49 29 -31 49 -53 44 -50 -15 10 -10
-22 5 -35 8 -6 12 -18 10 -25 -4 -10 0 -12 15 -8 24 6 71 -4 71 -16 0 -4 -28
-4 -62 1 -50 7 -64 5 -79 -8 -18 -16 -36 -4 -24 16 4 6 2 17 -4 24 -9 11 -6
12 14 8 15 -2 25 0 25 7 0 6 -4 11 -8 11 -5 0 -7 14 -6 30 2 27 -1 30 -18 24
-14 -4 -30 3 -56 28 -19 18 -32 26 -28 18 4 -8 1 -7 -8 4 -9 11 -22 16 -31 12
-9 -3 -13 -2 -10 4 3 6 -1 10 -9 10 -8 0 -27 12 -41 27 -19 21 -25 24 -25 11
0 -9 4 -18 10 -20 5 -2 6 -17 1 -38 -7 -33 -6 -36 16 -38 15 -1 23 4 23 13 0
13 4 14 20 5 11 -6 20 -16 20 -23 0 -7 20 -25 45 -41 45 -28 45 -29 23 -40
-13 -7 -32 -15 -42 -19 -16 -6 -17 -5 -6 8 11 13 10 19 -4 33 -20 20 -49 6
-54 -27 -5 -29 -30 -27 -59 5 -15 16 -31 24 -42 21 -23 -6 -22 14 1 40 37 43
48 87 25 107 -7 6 -10 10 -8 9 8 -5 30 33 31 52 0 15 5 11 18 -14 10 -19 28
-41 39 -48z m-162 -40 c0 -18 -5 -28 -15 -28 -8 0 -14 8 -14 17 1 10 -2 15 -7
12 -5 -3 -9 -1 -9 5 0 9 16 19 35 20 6 1 11 -11 10 -26z m802 -33 c8 0 12 -5
9 -12 -3 -7 -9 -21 -12 -31 -4 -9 -11 -17 -18 -16 -6 1 -18 1 -26 0 -13 -1
-13 -2 0 -11 9 -6 10 -10 3 -10 -6 0 -15 5 -18 11 -4 6 -14 8 -22 5 -8 -3 -11
-1 -8 4 3 6 1 10 -5 10 -6 0 -8 5 -5 10 4 6 13 7 24 1 27 -15 46 2 32 28 -7
11 -9 21 -5 21 3 0 1 7 -6 15 -11 13 -18 7 -47 -40 -19 -30 -38 -55 -43 -55
-17 0 4 44 42 85 l40 44 25 -30 c14 -16 32 -29 40 -29z m-670 28 c-3 -8 -6 -5
-6 6 -1 11 2 17 5 13 3 -3 4 -12 1 -19z m-67 -18 c0 -5 -4 -10 -9 -10 -6 0
-13 5 -16 10 -3 6 1 10 9 10 9 0 16 -4 16 -10z m965 -161 c36 -38 40 -45 15
-24 -19 15 -53 36 -74 46 -30 13 -40 23 -40 42 -2 25 -2 25 24 7 14 -10 48
-42 75 -71z m-955 51 c0 -5 -7 -10 -16 -10 -8 0 -12 5 -9 10 3 6 10 10 16 10
5 0 9 -4 9 -10z m60 -40 c0 -5 -6 -10 -14 -10 -8 0 -18 5 -21 10 -3 6 3 10 14
10 12 0 21 -4 21 -10z m275 -40 c-3 -5 -11 -10 -16 -10 -6 0 -7 5 -4 10 3 6
11 10 16 10 6 0 7 -4 4 -10z m395 -76 c0 -8 4 -13 10 -9 5 3 24 -8 42 -24 18
-17 28 -31 22 -31 -6 0 -19 9 -29 20 -13 14 -21 17 -25 9 -6 -8 -13 -8 -29 0
-17 10 -21 9 -21 -5 0 -10 -5 -14 -14 -11 -11 4 -13 1 -9 -11 4 -10 2 -13 -3
-9 -5 5 -9 22 -10 39 -1 17 1 26 5 20 11 -18 34 4 28 27 -4 18 -2 19 14 10 10
-5 19 -17 19 -25z m80 -10 c0 -14 -3 -14 -15 -4 -8 7 -15 14 -15 16 0 2 7 4
15 4 8 0 15 -7 15 -16z"/>
<path d="M1740 2390 c0 -25 45 -28 54 -4 9 23 8 24 -24 24 -23 0 -30 -4 -30
-20z"/>
<path d="M1403 1963 c9 -2 23 -2 30 0 6 3 -1 5 -18 5 -16 0 -22 -2 -12 -5z"/>
<path d="M1646 1875 c4 -8 10 -15 15 -15 5 0 9 7 9 15 0 8 -7 15 -15 15 -9 0
-12 -6 -9 -15z"/>
<path d="M1580 1760 c0 -5 -43 -55 -96 -110 -53 -55 -92 -100 -86 -100 11 0
149 144 182 190 12 17 17 30 11 30 -6 0 -11 -4 -11 -10z"/>
<path d="M605 1640 c3 -5 11 -10 16 -10 6 0 7 5 4 10 -3 6 -11 10 -16 10 -6 0
-7 -4 -4 -10z"/>
<path d="M635 1611 c6 -11 4 -13 -8 -8 -11 4 -14 2 -10 -9 6 -17 19 -18 29 -3
3 6 1 16 -6 22 -10 9 -11 9 -5 -2z"/>
<path d="M503 1569 c-24 -17 -43 -34 -43 -38 0 -4 28 -8 63 -8 34 -1 51 2 37
4 l-25 5 30 14 30 14 -30 -6 c-16 -3 -31 -10 -33 -15 -2 -5 -13 -9 -25 -9 -20
1 -18 4 15 35 46 43 37 44 -19 4z"/>
<path d="M892 1589 c3 -8 17 -15 33 -16 31 -2 23 11 -14 22 -17 5 -22 4 -19
-6z"/>
<path d="M642 1568 c-7 -7 -12 -17 -12 -22 0 -6 5 -3 11 7 12 21 29 22 29 3 0
-8 4 -18 10 -21 6 -4 7 2 1 16 -10 28 -23 33 -39 17z"/>
<path d="M960 1571 c0 -8 43 -41 54 -41 3 0 -6 11 -20 25 -27 27 -34 30 -34
16z"/>
<path d="M605 1550 c3 -5 8 -10 11 -10 2 0 4 5 4 10 0 6 -5 10 -11 10 -5 0 -7
-4 -4 -10z"/>
<path d="M761 1557 c2 -1 13 -9 24 -17 19 -14 19 -14 6 3 -7 9 -18 17 -24 17
-6 0 -8 -1 -6 -3z"/>
<path d="M861 1536 c-22 -23 -22 -26 -8 -55 9 -17 11 -29 6 -26 -5 4 -9 1 -9
-5 0 -15 85 -54 103 -47 8 3 24 19 35 35 16 22 18 29 6 29 -7 0 -12 -3 -9 -5
11 -12 -20 -32 -49 -32 -47 0 -57 12 -59 66 l-2 49 35 3 c30 2 38 -2 59 -33
13 -19 28 -35 33 -35 5 0 -5 18 -22 40 -39 49 -83 55 -119 16z"/>
<path d="M910 1501 c0 -24 15 -35 36 -27 12 4 13 10 4 26 -14 26 -40 26 -40 1z"/>
<path d="M459 1481 c10 -20 3 -43 -11 -35 -7 5 -9 -3 -5 -22 3 -16 4 -23 1
-16 -9 20 -22 4 -17 -21 4 -20 10 -24 43 -23 24 1 36 5 33 13 -3 6 -11 9 -18
7 -9 -4 -13 1 -11 12 2 15 12 18 52 17 38 -2 44 0 24 7 -14 4 -38 8 -53 9 -25
1 -26 3 -17 21 8 14 8 20 0 20 -6 0 -8 5 -5 10 3 6 15 10 27 10 16 0 18 -3 9
-13 -8 -10 -7 -14 2 -14 7 0 14 9 14 19 2 16 -5 18 -37 16 -31 -1 -37 -5 -31
-17z"/>
<path d="M553 1485 c-19 -21 -16 -39 3 -21 8 9 20 16 25 16 6 0 7 5 4 10 -8
13 -18 12 -32 -5z"/>
<path d="M508 1443 c7 -3 16 -2 19 1 4 3 -2 6 -13 5 -11 0 -14 -3 -6 -6z"/>
<path d="M404 1416 c-3 -14 -2 -31 3 -40 6 -11 8 -3 8 24 0 46 -2 50 -11 16z"/>
<path d="M810 1406 c0 -2 8 -10 18 -17 15 -13 16 -12 3 4 -13 16 -21 21 -21
13z"/>
<path d="M556 1383 c-6 -14 -5 -15 5 -6 7 7 10 15 7 18 -3 3 -9 -2 -12 -12z"/>
<path d="M701 1221 c-17 -11 -8 -39 15 -48 8 -3 23 1 31 10 13 13 14 19 3 31
-14 18 -28 20 -49 7z"/>
<path d="M903 1169 c9 -5 22 -7 27 -4 6 4 7 -1 3 -12 -6 -16 -5 -16 10 -4 23
18 12 31 -26 31 -27 -1 -29 -2 -14 -11z"/>
<path d="M952 1074 c0 -47 1 -47 8 -14 5 19 5 41 1 49 -5 8 -8 -6 -9 -35z"/>
<path d="M920 1085 c0 -5 5 -17 10 -25 5 -8 10 -10 10 -5 0 6 -5 17 -10 25 -5
8 -10 11 -10 5z"/>
<path d="M930 1023 c11 -24 30 -31 30 -11 0 6 -3 8 -7 5 -3 -4 -12 1 -20 11
-13 15 -13 15 -3 -5z"/>
<path d="M980 921 c0 -5 5 -13 10 -16 6 -3 10 -2 10 4 0 5 -4 13 -10 16 -5 3
-10 2 -10 -4z"/>
<path d="M1853 1524 c-3 -8 1 -23 10 -31 19 -19 47 -10 47 16 0 30 -46 43 -57
15z"/>
<path d="M1741 1486 c-17 -21 -7 -46 18 -46 30 0 36 19 14 42 -18 17 -21 17
-32 4z"/>
<path d="M1821 1436 c-10 -12 -8 -17 10 -26 17 -10 24 -9 38 4 14 15 14 18 1
26 -21 14 -36 12 -49 -4z"/>
<path d="M1422 1311 c-22 -16 -43 -35 -47 -41 -5 -9 73 46 94 66 16 15 -13 -1
-47 -25z"/>
<path d="M1576 1243 c-6 -14 -5 -15 5 -6 7 7 10 15 7 18 -3 3 -9 -2 -12 -12z"/>
<path d="M1526 1176 c-16 -25 -16 -26 4 -26 23 0 38 26 23 41 -7 7 -16 1 -27
-15z"/>
<path d="M1260 1130 c-6 -11 -8 -20 -6 -20 3 0 10 9 16 20 6 11 8 20 6 20 -3
0 -10 -9 -16 -20z"/>
<path d="M1418 1056 c-20 -14 -24 -36 -8 -36 6 0 10 7 10 15 0 14 12 20 33 16
5 -1 6 3 2 9 -8 13 -16 12 -37 -4z"/>
<path d="M1318 1009 c-15 -10 -21 -56 -7 -64 16 -10 44 4 55 28 9 20 7 25 -12
34 -12 6 -28 7 -36 2z"/>
<path d="M992 738 c-6 -6 -12 -16 -12 -21 0 -13 30 -40 37 -33 3 3 14 -4 25
-16 10 -12 21 -19 24 -16 3 3 -1 12 -8 19 -7 8 -13 28 -13 44 0 22 -5 31 -20
33 -11 1 -26 -3 -33 -10z"/>
<path d="M1510 786 c0 -2 8 -10 18 -17 15 -13 16 -12 3 4 -13 16 -21 21 -21
13z"/>
<path d="M1642 588 c-7 -7 -12 -17 -12 -24 0 -19 32 -26 48 -10 13 12 13 18 2
30 -15 19 -22 20 -38 4z"/>
<path d="M1733 563 c-7 -3 -13 -16 -13 -29 0 -19 5 -24 24 -24 13 0 27 7 30
16 4 9 5 17 4 18 -2 1 -10 7 -18 12 -8 6 -21 9 -27 7z"/>
<path d="M1804 515 c-8 -19 13 -45 36 -45 23 0 31 21 15 43 -15 21 -44 22 -51
2z"/>
<path d="M1778 443 c-21 -5 -23 -14 -6 -31 15 -15 45 -16 53 -2 7 11 -12 41
-24 39 -3 -1 -14 -3 -23 -6z"/>
<path d="M1409 328 c-13 -47 -3 -68 34 -68 28 0 18 44 -11 48 -12 2 -20 8 -17
13 4 5 4 9 1 9 -3 0 -6 -1 -7 -2z"/>
<path d="M2130 490 c0 -5 5 -10 11 -10 5 0 7 5 4 10 -3 6 -8 10 -11 10 -2 0
-4 -4 -4 -10z"/>
<path d="M1995 468 c-33 -18 -55 -40 -49 -50 3 -5 12 -4 20 3 11 9 14 7 15
-12 0 -13 3 -18 6 -11 2 6 11 12 19 12 9 0 12 -5 8 -12 -5 -7 -3 -8 5 -4 7 5
10 10 7 13 -2 3 -1 16 4 29 6 16 6 24 -1 24 -6 0 -7 5 -4 10 8 13 -5 12 -30
-2z"/>
<path d="M2196 385 c-3 -8 -1 -15 4 -15 6 0 10 -9 10 -20 0 -13 10 -24 26 -30
36 -14 39 -13 19 10 -10 11 -22 17 -26 14 -5 -3 -9 6 -9 20 0 29 -15 43 -24
21z"/>
<path d="M2320 355 c0 -5 23 -36 52 -69 47 -56 48 -57 10 -21 -23 21 -42 35
-42 29 0 -5 17 -27 39 -48 32 -31 39 -35 45 -21 4 11 -7 33 -34 65 -44 52 -70
77 -70 65z"/>
<path d="M2347 235 c12 -16 33 -41 48 -55 23 -21 26 -21 17 -5 -6 11 -27 36
-48 55 -36 34 -37 34 -17 5z"/>
<path d="M2268 183 c7 -3 16 -2 19 1 4 3 -2 6 -13 5 -11 0 -14 -3 -6 -6z"/>
<path d="M2298 129 c24 -23 45 -40 47 -37 2 2 -3 18 -12 36 -10 20 -19 29 -23
22 -5 -7 -11 -6 -20 5 -7 8 -18 15 -24 15 -6 0 8 -19 32 -41z"/>
<path d="M1912 108 c-13 -13 10 -59 26 -53 8 3 18 5 23 5 5 0 9 11 9 24 0 17
-7 25 -24 28 -14 3 -29 1 -34 -4z"/>
<path d="M1711 82 c-8 -9 -24 -28 -35 -42 l-21 -25 23 19 c17 15 22 16 22 5 0
-8 -5 -20 -12 -27 -9 -9 -6 -12 16 -12 24 0 27 2 16 15 -11 13 -8 17 19 26 24
9 31 16 29 33 -4 27 -38 32 -57 8z"/>
<path d="M2506 62 c-3 -9 -9 -24 -12 -32 -5 -12 -4 -12 6 -3 15 14 40 6 40
-13 0 -8 5 -14 10 -14 13 0 12 11 -4 32 -7 10 -17 14 -21 10 -5 -4 -5 1 -2 10
3 10 2 20 -2 23 -5 2 -11 -3 -15 -13z"/>
<path d="M1766 25 c4 -8 8 -15 10 -15 2 0 4 7 4 15 0 8 -4 15 -10 15 -5 0 -7
-7 -4 -15z"/>
</g>
</svg>
